<?xml version="1.0" encoding="UTF-8"?>
<svg id="_レイヤー_2" data-name="レイヤー 2" xmlns="http://www.w3.org/2000/svg" viewBox="0 0 149.99 96.15">
  <defs>
    <style>
      .cls-1 {
        fill: #fafafe;
      }

      .cls-2 {
        fill: #e6e6e6;
      }

      .cls-3 {
        fill: #fffefe;
      }

      .cls-4 {
        fill: #fcfcfc;
      }
    </style>
  </defs>
  <g id="_レイヤー_1-2" data-name="レイヤー 1">
    <ellipse class="cls-2" cx="100.45" cy="72.27" rx="17.71" ry="11.88"/>
    <circle class="cls-2" cx="91.55" cy="58.66" r="16.59"/>
    <ellipse class="cls-2" cx="63.72" cy="52.15" rx="8.29" ry="7.28"/>
    <ellipse class="cls-2" cx="50.37" cy="49.76" rx="15.42" ry="11.86"/>
    <ellipse class="cls-2" cx="36.23" cy="59.66" rx="14.86" ry="7.28" transform="translate(-33.09 51.5) rotate(-52.02)"/>
    <ellipse class="cls-2" cx="129.19" cy="86.82" rx="8.29" ry="7.28"/>
    <ellipse class="cls-2" cx="93.85" cy="86.82" rx="8.29" ry="7.28"/>
    <ellipse class="cls-2" cx="79.94" cy="89.89" rx="10.82" ry="4.94" transform="translate(-17.38 19.18) rotate(-12.35)"/>
    <ellipse class="cls-2" cx="63.72" cy="83.21" rx="12.85" ry="12.16"/>
    <ellipse class="cls-2" cx="38.57" cy="88.1" rx="21.15" ry="8.05"/>
    <ellipse class="cls-2" cx="37.03" cy="63.5" rx="8.29" ry="7.28"/>
    <ellipse class="cls-2" cx="79.74" cy="83.21" rx="7.95" ry="8.78" transform="translate(-13.57 150.86) rotate(-82.16)"/>
    <circle class="cls-2" cx="34.95" cy="77.84" r="13.35"/>
    <ellipse class="cls-2" cx="110.76" cy="84.53" rx="14.51" ry="11.11" transform="translate(-2.93 3.98) rotate(-2.03)"/>
    <ellipse class="cls-2" cx="113.21" cy="63.99" rx="8.9" ry="7.78"/>
    <ellipse class="cls-2" cx="113.21" cy="53.11" rx="13.53" ry="7.28"/>
    <ellipse class="cls-2" cx="87.19" cy="42.08" rx="8.29" ry="7.28"/>
    <ellipse class="cls-2" cx="91.49" cy="35.69" rx="5.94" ry="4.44"/>
    <ellipse class="cls-2" cx="85.55" cy="32.99" rx="2.84" ry="6.35" transform="translate(-5.54 43.46) rotate(-27.64)"/>
    <ellipse class="cls-2" cx="74.97" cy="25.51" rx="8.29" ry="7.28"/>
    <ellipse class="cls-2" cx="48.04" cy="36.1" rx="8.89" ry="4.15" transform="translate(-4.69 64.92) rotate(-65.58)"/>
    <ellipse class="cls-2" cx="57.05" cy="27.82" rx="6.67" ry="5.33"/>
    <ellipse class="cls-2" cx="97.43" cy="30.09" rx="6.82" ry="4.58"/>
    <circle class="cls-2" cx="83.26" cy="12.35" r="3.87"/>
    <ellipse class="cls-2" cx="72.58" cy="10.63" rx="8.29" ry="7.28"/>
    <ellipse class="cls-2" cx="64.43" cy="19.07" rx="8.29" ry="7.28"/>
    <ellipse class="cls-2" cx="29.9" cy="59.86" rx="8.29" ry="3.64"/>
    <ellipse class="cls-2" cx="24.19" cy="55.07" rx="5.31" ry="3.75" transform="translate(-35.33 46.36) rotate(-57.96)"/>
    <ellipse class="cls-2" cx="31.65" cy="51.65" rx="8.29" ry="7.28"/>
    <ellipse class="cls-2" cx="35.57" cy="42.48" rx="4.67" ry="4.33" transform="translate(-16.73 60.77) rotate(-69.32)"/>
    <circle class="cls-2" cx="77.74" cy="17.37" r="5.02"/>
    <ellipse class="cls-2" cx="91.49" cy="29.88" rx="3.63" ry="5.45" transform="translate(-4.27 20.26) rotate(-12.35)"/>
    <ellipse class="cls-2" cx="83.26" cy="28.61" rx="8.29" ry="7.28"/>
    <ellipse class="cls-2" cx="64.24" cy="66.24" rx="25.19" ry="21.87"/>
    <ellipse class="cls-2" cx="67.93" cy="37.9" rx="17.56" ry="13.08"/>
    <ellipse class="cls-2" cx="23.94" cy="49.35" rx="8.29" ry="7.28"/>
    <circle class="cls-2" cx="29.9" cy="42.08" r="3.45"/>
    <ellipse class="cls-2" cx="40.74" cy="38.77" rx="6.94" ry="3.41" transform="translate(-6.66 69.03) rotate(-76.14)"/>
    <ellipse class="cls-2" cx="25.06" cy="70.36" rx="3.51" ry="3.85"/>
    <ellipse class="cls-2" cx="21.5" cy="91.1" rx="5.86" ry="4.28"/>
    <ellipse class="cls-2" cx="17.52" cy="84.53" rx="8.7" ry="11.91" transform="translate(-68.37 93.22) rotate(-84.06)"/>
    <ellipse class="cls-2" cx="56.13" cy="22.12" rx="8.29" ry="7.28" transform="translate(-.19 43.76) rotate(-42.52)"/>
    <ellipse class="cls-2" cx="57.05" cy="12.48" rx="4.58" ry="3.99"/>
    <ellipse class="cls-2" cx="66.67" cy="11.79" rx="8.29" ry="7.28"/>
    <ellipse class="cls-3" cx="97.49" cy="68.91" rx="17.71" ry="11.88"/>
    <circle class="cls-3" cx="88.6" cy="55.31" r="16.59"/>
    <ellipse class="cls-3" cx="60.77" cy="48.8" rx="8.29" ry="7.28"/>
    <ellipse class="cls-3" cx="47.42" cy="46.4" rx="15.42" ry="11.86"/>
    <ellipse class="cls-3" cx="33.28" cy="56.3" rx="14.86" ry="7.28" transform="translate(-31.58 47.89) rotate(-52.02)"/>
    <ellipse class="cls-3" cx="126.24" cy="83.47" rx="8.29" ry="7.28"/>
    <ellipse class="cls-3" cx="90.89" cy="83.47" rx="8.29" ry="7.28"/>
    <ellipse class="cls-3" cx="76.99" cy="86.54" rx="10.82" ry="4.94" transform="translate(-16.73 18.47) rotate(-12.35)"/>
    <ellipse class="cls-3" cx="60.77" cy="79.86" rx="12.85" ry="12.16"/>
    <ellipse class="cls-3" cx="35.61" cy="84.75" rx="21.15" ry="8.05"/>
    <ellipse class="cls-3" cx="34.08" cy="60.14" rx="8.29" ry="7.28"/>
    <ellipse class="cls-3" cx="76.78" cy="79.86" rx="7.95" ry="8.78" transform="translate(-12.8 145.04) rotate(-82.16)"/>
    <circle class="cls-3" cx="32" cy="74.48" r="13.35"/>
    <ellipse class="cls-3" cx="107.81" cy="81.18" rx="14.51" ry="11.11" transform="translate(-2.81 3.87) rotate(-2.03)"/>
    <ellipse class="cls-3" cx="110.25" cy="60.64" rx="8.9" ry="7.78"/>
    <ellipse class="cls-3" cx="110.25" cy="49.75" rx="13.53" ry="7.28"/>
    <ellipse class="cls-3" cx="84.24" cy="38.72" rx="8.29" ry="7.28"/>
    <ellipse class="cls-3" cx="88.54" cy="32.34" rx="5.94" ry="4.44"/>
    <ellipse class="cls-3" cx="82.6" cy="29.63" rx="2.84" ry="6.35" transform="translate(-4.32 41.71) rotate(-27.64)"/>
    <ellipse class="cls-3" cx="72.01" cy="22.16" rx="8.29" ry="7.28"/>
    <ellipse class="cls-3" cx="45.08" cy="32.74" rx="8.89" ry="4.15" transform="translate(-3.37 60.26) rotate(-65.58)"/>
    <ellipse class="cls-3" cx="54.09" cy="24.47" rx="6.67" ry="5.33"/>
    <ellipse class="cls-3" cx="94.47" cy="26.74" rx="6.82" ry="4.58"/>
    <circle class="cls-3" cx="80.31" cy="9" r="3.87"/>
    <ellipse class="cls-3" cx="69.62" cy="7.28" rx="8.29" ry="7.28"/>
    <ellipse class="cls-3" cx="61.47" cy="15.71" rx="8.29" ry="7.28"/>
    <ellipse class="cls-3" cx="26.94" cy="56.5" rx="8.29" ry="3.64"/>
    <ellipse class="cls-3" cx="21.24" cy="51.72" rx="5.31" ry="3.75" transform="translate(-33.87 42.29) rotate(-57.96)"/>
    <ellipse class="cls-3" cx="28.7" cy="48.3" rx="8.29" ry="7.28"/>
    <ellipse class="cls-3" cx="32.62" cy="39.13" rx="4.67" ry="4.33" transform="translate(-15.51 55.84) rotate(-69.32)"/>
    <circle class="cls-3" cx="74.78" cy="14.02" r="5.02"/>
    <ellipse class="cls-3" cx="88.54" cy="26.52" rx="3.63" ry="5.45" transform="translate(-3.62 19.56) rotate(-12.35)"/>
    <ellipse class="cls-3" cx="80.31" cy="25.25" rx="8.29" ry="7.28"/>
    <ellipse class="cls-3" cx="61.29" cy="62.88" rx="25.19" ry="21.87"/>
    <ellipse class="cls-3" cx="64.98" cy="34.54" rx="17.56" ry="13.08"/>
    <ellipse class="cls-3" cx="20.98" cy="46" rx="8.29" ry="7.28"/>
    <circle class="cls-3" cx="26.94" cy="38.72" r="3.45"/>
    <ellipse class="cls-3" cx="37.78" cy="35.41" rx="6.94" ry="3.41" transform="translate(-5.65 63.61) rotate(-76.14)"/>
    <ellipse class="cls-3" cx="22.1" cy="67" rx="3.51" ry="3.85"/>
    <ellipse class="cls-3" cx="18.55" cy="87.75" rx="5.86" ry="4.28"/>
    <ellipse class="cls-3" cx="14.57" cy="81.18" rx="8.7" ry="11.91" transform="translate(-67.68 87.28) rotate(-84.06)"/>
    <ellipse class="cls-3" cx="53.18" cy="18.76" rx="8.29" ry="7.28" transform="translate(1.3 40.88) rotate(-42.52)"/>
    <ellipse class="cls-3" cx="54.09" cy="9.12" rx="4.58" ry="3.99"/>
    <ellipse class="cls-3" cx="63.72" cy="8.43" rx="8.29" ry="7.28"/>
    <path class="cls-2" d="M117.52,55.96s.02.07.02.11c0,1.87-5.94,3.38-13.26,3.38-5.62,0-10.42-.89-12.35-2.15.23,1.82,6.06,3.27,13.24,3.27s13.26-1.51,13.26-3.38c0-.43-.33-.85-.91-1.23Z"/>
    <path class="cls-2" d="M115.55,67.13s0,.09,0,.14c0,2.38-2.56,4.31-5.71,4.31-2.42,0-4.48-1.14-5.31-2.74.1,2.31,2.61,4.17,5.7,4.17s5.71-1.93,5.71-4.31c0-.55-.14-1.08-.39-1.56Z"/>
    <path class="cls-2" d="M94.04,32.34s.01.08.01.13c0,2.17-2.79,3.92-6.23,3.92-2.64,0-4.89-1.04-5.8-2.5.11,2.11,2.85,3.8,6.22,3.8s6.23-1.76,6.23-3.92c0-.5-.16-.98-.43-1.42Z"/>
    <path class="cls-2" d="M79.75,15.07s0,.07,0,.11c0,1.87-2.39,3.38-5.33,3.38-2.26,0-4.19-.89-4.97-2.15.09,1.82,2.44,3.27,5.33,3.27s5.33-1.51,5.33-3.38c0-.43-.13-.85-.37-1.23Z"/>
    <path class="cls-2" d="M77.76,4.98s0,.07,0,.11c0,1.87-1.2,3.38-2.69,3.38-1.14,0-2.11-.89-2.5-2.15.05,1.82,1.23,3.27,2.68,3.27s2.69-1.51,2.69-3.38c0-.43-.07-.85-.19-1.23Z"/>
    <path class="cls-2" d="M82.11,34.13s0,.07,0,.11c0,1.87-1.63,3.38-3.63,3.38-1.54,0-2.86-.89-3.38-2.15.06,1.82,1.66,3.27,3.63,3.27s3.63-1.51,3.63-3.38c0-.43-.09-.85-.25-1.23Z"/>
    <ellipse class="cls-1" cx="48.9" cy="71.42" rx="19.04" ry="20.44"/>
    <ellipse class="cls-1" cx="68.02" cy="70.36" rx="15.09" ry="11.37"/>
    <ellipse class="cls-1" cx="70.53" cy="80.79" rx="22.78" ry="11.37"/>
    <ellipse class="cls-1" cx="50.87" cy="52.75" rx="15.09" ry="11.37"/>
    <ellipse class="cls-1" cx="39.95" cy="49.35" rx="15.09" ry="11.37"/>
    <ellipse class="cls-1" cx="38.19" cy="66.51" rx="15.09" ry="11.37"/>
    <ellipse class="cls-1" cx="32.62" cy="81.18" rx="15.09" ry="11.37"/>
    <ellipse class="cls-1" cx="15.75" cy="83.85" rx="8.25" ry="6.63"/>
    <ellipse class="cls-1" cx="67.3" cy="58.14" rx="11.42" ry="5.99"/>
    <ellipse class="cls-1" cx="55.43" cy="47.74" rx="12.38" ry="11.42"/>
    <ellipse class="cls-1" cx="83.11" cy="70.36" rx="15.09" ry="11.37"/>
    <ellipse class="cls-2" cx="83.13" cy="86.14" rx="15.41" ry="5.62"/>
    <ellipse class="cls-2" cx="54.6" cy="84.53" rx="8.35" ry="7.23"/>
    <ellipse class="cls-2" cx="70.53" cy="83.47" rx="14.94" ry="9.53"/>
    <ellipse class="cls-2" cx="59.76" cy="84.8" rx="13.51" ry="7.5"/>
    <path class="cls-2" d="M92.45,61.77c.09.09.19.17.27.26,4.4,4.8,3.34,12.95-2.39,18.2-4.39,4.03-10.25,5.17-14.73,3.31,4.46,4.51,12.45,4.07,18.06-1.07,5.72-5.25,6.79-13.4,2.39-18.2-1.02-1.11-2.26-1.94-3.61-2.5Z"/>
    <ellipse class="cls-2" cx="31.32" cy="91.46" rx="7" ry="2.93"/>
    <ellipse class="cls-2" cx="21.89" cy="88.65" rx="11.46" ry="3.74"/>
    <ellipse class="cls-2" cx="42.02" cy="88.16" rx="6.05" ry="7.04" transform="translate(-50.03 55.54) rotate(-45)"/>
    <ellipse class="cls-2" cx="47.42" cy="87.75" rx="6.05" ry="7.04" transform="translate(-48.16 59.23) rotate(-45)"/>
    <path class="cls-2" d="M47.05,82.4c-.03.08-.06.16-.09.24-1.84,4.06-7.53,5.45-12.71,3.1-3.98-1.8-6.48-5.29-6.6-8.65-1.63,4.02,1.05,9.06,6.13,11.36s10.87.96,12.71-3.1c.43-.94.6-1.95.57-2.96Z"/>
    <ellipse class="cls-1" cx="107.29" cy="82.06" rx="15.02" ry="8.64"/>
    <path class="cls-3" d="M67.69,53.25c6.44-2.61,14,.9,17.44,7.88-.13-.39-.26-.78-.42-1.17-3.14-7.73-11.17-11.76-17.95-9-6.78,2.75-9.73,11.25-6.6,18.97.16.39.34.76.52,1.13-2.4-7.4.57-15.19,7.01-17.8Z"/>
    <ellipse class="cls-2" cx="115.77" cy="89.5" rx="4.54" ry="3.55"/>
    <ellipse class="cls-2" cx="101.95" cy="86.48" rx="5.4" ry="11.69" transform="translate(-18.94 143.57) rotate(-65.58)"/>
    <ellipse class="cls-3" cx="145.84" cy="74.48" rx="4.15" ry="3.43"/>
    <circle class="cls-3" cx="140.81" cy="73" r="2.08"/>
    <path class="cls-4" d="M64.97,29.18c.09.09.19.17.27.26,4.4,4.8,3.34,12.95-2.39,18.2-4.39,4.03-10.25,5.17-14.73,3.31,4.46,4.51,12.45,4.07,18.06-1.07,5.72-5.25,6.79-13.4,2.39-18.2-1.02-1.11-2.26-1.94-3.61-2.5Z"/>
    <ellipse class="cls-3" cx="1.89" cy="67.79" rx="1.29" ry="1.92" transform="translate(-64.38 53.39) rotate(-76.14)"/>
  </g>
</svg>