<?xml version="1.0" encoding="UTF-8"?>
<svg id="_レイヤー_2" data-name="レイヤー 2" xmlns="http://www.w3.org/2000/svg" viewBox="0 0 209.4 232.36">
  <defs>
    <style>
      .cls-1 {
        fill: #e6e600;
      }

      .cls-2, .cls-3 {
        fill: #a19cc6;
      }

      .cls-3, .cls-4 {
        stroke: #000;
        stroke-miterlimit: 10;
        stroke-width: 7px;
      }

      .cls-5 {
        fill: #fff;
      }

      .cls-6 {
        fill: #fafafa;
      }

      .cls-4 {
        fill: none;
      }
    </style>
  </defs>
  <g id="_レイヤー_1-2" data-name="レイヤー 1">
    <path class="cls-1" d="M178.49,173.85l11.08,20.8-17.26,8.47,8.52,13.81-17.05,10.4-8.3-17.83-18.07,6.69-5.12-14.21.03-.02c17.91-5.06,33.79-14.92,46.17-28.11Z"/>
    <path class="cls-1" d="M79.48,202.62l-8.64,17.87-15.88-9.65-7.07,15.74-16.52-8.31,9.02-18.57-16.32-10.4,8.57-13.64.03.02c12.68,12.84,28.77,22.31,46.81,26.94Z"/>
    <polyline class="cls-4" points="79.48 202.61 79.48 202.62 70.84 220.49 54.96 210.84 47.89 226.58 31.37 218.27 40.39 199.7 24.07 189.3 32.64 175.66"/>
    <g>
      <path class="cls-5" d="M205.9,104.64c0,26.77-10.41,51.11-27.41,69.21-12.38,13.19-28.26,23.05-46.17,28.11-8.78,2.49-18.04,3.82-27.62,3.82-8.71,0-17.16-1.1-25.22-3.16-18.04-4.63-34.13-14.1-46.81-26.94C14.64,157.41,3.5,132.33,3.5,104.64c0-29.19,12.38-55.5,32.18-73.95C53.76,13.82,78.03,3.51,104.7,3.51s51.23,10.44,69.35,27.49l.03.02c19.59,18.44,31.82,44.6,31.82,73.62Z"/>
      <path class="cls-4" d="M174.05,31C155.93,13.95,131.53,3.51,104.7,3.51S53.76,13.82,35.68,30.69C15.88,49.14,3.5,75.45,3.5,104.64c0,27.69,11.14,52.77,29.17,71.04,12.68,12.84,28.77,22.31,46.81,26.94,8.06,2.06,16.51,3.16,25.22,3.16,9.58,0,18.84-1.33,27.62-3.82,17.91-5.06,33.79-14.92,46.17-28.11,17-18.1,27.41-42.44,27.41-69.21,0-29.02-12.23-55.18-31.82-73.62"/>
    </g>
    <path class="cls-2" d="M185.67,127.15l-20.82,34.94-16.34-31.41s-4.92-9.87,11.42-8.4c16.34,1.47,25.74,4.87,25.74,4.87Z"/>
    <path d="M132.32,201.96l46.17-28.11c-12.38,13.19-28.26,23.05-46.17,28.11Z"/>
    <path class="cls-6" d="M161.59,79.11c4.14,0,7.49,3.2,7.49,7.16s-3.35,7.17-7.49,7.17-7.49-3.21-7.49-7.17,3.36-7.16,7.49-7.16Z"/>
    <path class="cls-1" d="M111.74,88.63c2.27,1.87,3.72,4.7,3.72,7.87,0,5.64-4.6,10.22-10.27,10.22s-10.27-4.58-10.27-10.22c0-3.25,1.52-6.14,3.89-8,1.75-1.39,3.97-2.22,6.38-2.22s4.77.88,6.55,2.35Z"/>
    <path d="M79.48,202.61h0c-18.04-4.62-34.13-14.09-46.81-26.93l46.81,26.93Z"/>
    <path class="cls-2" d="M63.62,121.4c5.78,11.05-21.69,28.74-21.69,28.74l-10.56-29.92,17.35-6.49s9.11-3.39,14.9,7.67Z"/>
    <path class="cls-6" d="M55.22,53.95c5.75,0,10.41,5.27,10.41,11.77s-4.66,11.77-10.41,11.77-10.42-5.27-10.42-11.77,4.66-11.77,10.42-11.77Z"/>
    <ellipse class="cls-6" cx="41.72" cy="84.21" rx="7.49" ry="7.17"/>
    <polyline class="cls-4" points="178.49 173.85 189.57 194.65 172.31 203.12 180.83 216.93 163.78 227.33 155.48 209.5 137.41 216.19 132.29 201.98"/>
    <path class="cls-4" d="M31.37,120.22l17.35-6.49s9.11-3.39,14.9,7.67c5.78,11.05-21.69,28.74-21.69,28.74"/>
    <path class="cls-4" d="M164.85,162.09l-16.34-31.41s-4.92-9.87,11.42-8.4c16.34,1.47,25.74,4.87,25.74,4.87"/>
    <path class="cls-4" d="M98.81,88.5c-2.37,1.86-3.89,4.75-3.89,8,0,5.64,4.6,10.22,10.27,10.22s10.27-4.58,10.27-10.22c0-3.17-1.45-6-3.72-7.87-1.78-1.47-4.06-2.35-6.55-2.35s-4.63.83-6.38,2.22Z"/>
    <path class="cls-3" d="M98.78,88.46s-.22-38.36-25.48-51c-25.25-12.64-37.32-6.44-37.32-6.44,0,0,27.2-28.25,68.72-27.51s69.38,27.51,69.38,27.51c0,0,0,0-.03-.02-.72-.35-12.69-5.79-36.93,6.46-25.02,12.64-25.23,51-25.23,51,0,0-7.27-5.25-13.08.04"/>
    <path class="cls-4" d="M182.39,78.99s-3.43-8.72-12.76-8.45-13.86,6.93-13.86,6.93"/>
    <path class="cls-4" d="M62.51,76.93s-3.43-8.72-12.76-8.45-13.86,6.93-13.86,6.93"/>
  </g>
</svg>