<?xml version="1.0" encoding="UTF-8"?>
<svg id="_レイヤー_2" data-name="レイヤー 2" xmlns="http://www.w3.org/2000/svg" viewBox="0 0 738.83 237.52">
  <defs>
    <style>
      .cls-1, .cls-2, .cls-3, .cls-4, .cls-5, .cls-6, .cls-7 {
        stroke: #000;
        stroke-miterlimit: 10;
      }

      .cls-1, .cls-2, .cls-3, .cls-4, .cls-5, .cls-7 {
        stroke-width: 7px;
      }

      .cls-1, .cls-8 {
        fill: #fff;
      }

      .cls-9, .cls-6, .cls-7 {
        fill: #e6e600;
      }

      .cls-10, .cls-3 {
        fill: #a19cc6;
      }

      .cls-2 {
        fill: #666;
      }

      .cls-11 {
        fill: #fafafa;
      }

      .cls-4 {
        fill: gray;
      }

      .cls-5 {
        fill: none;
      }

      .cls-6 {
        stroke-width: 5px;
      }
    </style>
  </defs>
  <g id="_レイヤー_1-2" data-name="レイヤー 1">
    <path class="cls-3" d="M46.36,151.32c-23.63.31-40.96-4.31-42.71-11.5-1.06-4.34,3.65-9.24,8.37-14.15,7.11-7.39,15.2-11.48,20.31-13.62"/>
    <path class="cls-9" d="M457.61,173.85l11.08,20.8-17.26,8.47,8.52,13.81-17.05,10.4-8.3-17.83-18.07,6.69-5.12-14.21.03-.02c17.91-5.06,33.79-14.92,46.17-28.11Z"/>
    <path class="cls-3" d="M225.18,146.12c19.58.31,33.94-4.31,35.39-11.5.88-4.34-3.03-9.24-6.94-14.15-5.89-7.39-12.6-11.48-16.83-13.62"/>
    <polyline class="cls-7" points="60.19 173.19 51.14 187 67.57 196.64 58.56 216.94 75.57 224.21 83.42 210.42 99.27 218.57 105.01 201.19"/>
    <polyline class="cls-7" points="206.87 171.61 217.21 192.41 200.52 200.02 210.4 213.9 191.08 223.75 183.4 207.41 165.18 216.14 160.13 203.16"/>
    <ellipse class="cls-1" cx="133.08" cy="107.68" rx="101.64" ry="99.6"/>
    <path class="cls-9" d="M358.6,202.62l-8.64,17.87-15.88-9.65-7.07,15.74-16.52-8.31,9.02-18.57-16.32-10.4,8.57-13.64.03.02c12.68,12.84,28.77,22.31,46.81,26.94Z"/>
    <polyline class="cls-5" points="358.6 202.61 358.6 202.62 349.96 220.49 334.08 210.84 327.01 226.58 310.49 218.27 319.51 199.7 303.19 189.3 311.76 175.66"/>
    <g>
      <path class="cls-8" d="M485.02,104.64c0,26.77-10.41,51.11-27.41,69.21-12.38,13.19-28.26,23.05-46.17,28.11-8.78,2.49-18.04,3.82-27.62,3.82-8.71,0-17.16-1.1-25.22-3.16-18.04-4.63-34.13-14.1-46.81-26.94-18.03-18.27-29.17-43.35-29.17-71.04,0-29.19,12.38-55.5,32.18-73.95,18.08-16.87,42.35-27.18,69.02-27.18s51.23,10.44,69.35,27.49l.03.02c19.59,18.44,31.82,44.6,31.82,73.62Z"/>
      <path class="cls-5" d="M453.17,31c-18.12-17.05-42.52-27.49-69.35-27.49s-50.94,10.31-69.02,27.18c-19.8,18.45-32.18,44.76-32.18,73.95,0,27.69,11.14,52.77,29.17,71.04,12.68,12.84,28.77,22.31,46.81,26.94,8.06,2.06,16.51,3.16,25.22,3.16,9.58,0,18.84-1.33,27.62-3.82,17.91-5.06,33.79-14.92,46.17-28.11,17-18.1,27.41-42.44,27.41-69.21,0-29.02-12.23-55.18-31.82-73.62"/>
    </g>
    <polyline class="cls-7" points="603.45 206.1 595.2 224.23 581.05 215.98 573.07 231.09 555.73 223.3 565.2 203.88 549 193.88 558.66 177.52"/>
    <polyline class="cls-7" points="704.25 182.98 713.34 199.43 696.58 207.84 704.49 223.78 688.68 232.71 678.37 213.53 661.36 221.24 655.83 208.46"/>
    <ellipse class="cls-1" cx="634.13" cy="111.16" rx="101.2" ry="99.6"/>
    <path class="cls-3" d="M149.29,95.9c32.21,0,61.8,7.78,85.09,20.76.45-3.81.69-7.68.69-11.61,0-55.23-45.5-100.01-101.64-100.01S31.78,49.82,31.78,105.06c0,6.32.8,12.58.8,12.58.43,3.34.96,6.12,1.38,8.09.96,4.48,2.09,8.27,3.12,11.26,24.47-24.8,65.6-41.08,112.21-41.08Z"/>
    <polygon class="cls-6" points="124.74 66.93 140.87 84.74 158.34 68.3 142.21 50.49 124.74 66.93"/>
    <line class="cls-5" x1="158.34" y1="67.62" x2="124.74" y2="67.61"/>
    <polyline class="cls-5" points="89.2 36.97 112.76 47.36 92.78 62.82"/>
    <path class="cls-4" d="M618.33,102.41c-32.07,0-61.53,7.78-84.72,20.76-.45-3.81-.68-7.68-.68-11.61,0-55.23,45.31-100.01,101.2-100.01s101.2,44.78,101.2,100.01c0,6.32-.79,12.58-.79,12.58-.43,3.34-.95,6.12-1.37,8.09-.95,4.48-2.08,8.27-3.1,11.26-24.37-24.8-65.32-41.08-111.73-41.08Z"/>
    <polygon class="cls-6" points="621.81 69.06 637.93 86.87 655.4 70.43 639.28 52.62 621.81 69.06"/>
    <line class="cls-5" x1="655.4" y1="69.75" x2="621.81" y2="69.74"/>
    <path class="cls-5" d="M606.55,61.57s-3.43-8.72-12.76-8.45-13.86,6.93-13.86,6.93"/>
    <path class="cls-2" d="M563.37,151.25l50.31,2.29s8.71,0,9.28-8.6-7.59-9.46-8.99-9.46h-9.56s-1.87.71-1.66-5c.21-5.71.28-7.37.28-7.37,0,0,.64-3.25-4.04-3.32s-7.44-.65-7.79,3.54-.28,7.01-.28,7.01c0,0,.43,4.77-4.54,4.98s-20.48-2.17-20.48-2.17"/>
    <path class="cls-2" d="M705.6,151.25l-54.73,2.29s-9.48,0-10.09-8.6c-.61-8.6,8.26-9.46,9.78-9.46h10.4s2.04.71,1.81-5-.31-7.37-.31-7.37c0,0-.69-3.25,4.39-3.32s8.09-.65,8.48,3.54c.39,4.19.31,7.01.31,7.01,0,0-.46,4.77,4.93,4.98s22.28-2.17,22.28-2.17"/>
    <path class="cls-10" d="M464.79,127.15l-20.82,34.94-16.34-31.41s-4.92-9.87,11.42-8.4c16.34,1.47,25.74,4.87,25.74,4.87Z"/>
    <path d="M411.44,201.96l46.17-28.11c-12.38,13.19-28.26,23.05-46.17,28.11Z"/>
    <path class="cls-9" d="M390.86,88.63c2.27,1.87,3.72,4.7,3.72,7.87,0,5.64-4.6,10.22-10.27,10.22s-10.27-4.58-10.27-10.22c0-3.25,1.52-6.14,3.89-8,1.75-1.39,3.97-2.22,6.38-2.22s4.77.88,6.55,2.35Z"/>
    <path d="M358.6,202.61h0c-18.04-4.62-34.13-14.09-46.81-26.93l46.81,26.93Z"/>
    <path class="cls-10" d="M342.74,121.4c5.78,11.05-21.69,28.74-21.69,28.74l-10.56-29.92,17.35-6.49s9.11-3.39,14.9,7.67Z"/>
    <ellipse class="cls-11" cx="320.84" cy="84.21" rx="7.49" ry="7.17"/>
    <polyline class="cls-5" points="457.61 173.85 468.69 194.65 451.43 203.12 459.95 216.93 442.9 227.33 434.6 209.5 416.53 216.19 411.41 201.98"/>
    <path class="cls-5" d="M310.49,120.22l17.35-6.49s9.11-3.39,14.9,7.67c5.78,11.05-21.69,28.74-21.69,28.74"/>
    <path class="cls-5" d="M443.97,162.09l-16.34-31.41s-4.92-9.87,11.42-8.4c16.34,1.47,25.74,4.87,25.74,4.87"/>
    <path class="cls-5" d="M377.93,88.5c-2.37,1.86-3.89,4.75-3.89,8,0,5.64,4.6,10.22,10.27,10.22s10.27-4.58,10.27-10.22c0-3.17-1.45-6-3.72-7.87-1.78-1.47-4.06-2.35-6.55-2.35s-4.63.83-6.38,2.22Z"/>
    <path class="cls-3" d="M377.9,88.46s-.22-38.36-25.48-51c-25.25-12.64-37.32-6.44-37.32-6.44,0,0,27.2-28.25,68.72-27.51s69.38,27.51,69.38,27.51c0,0,0,0-.03-.02-.72-.35-12.69-5.79-36.93,6.46-25.02,12.64-25.23,51-25.23,51,0,0-7.27-5.25-13.08.04"/>
    <path class="cls-5" d="M341.63,76.93s-3.43-8.72-12.76-8.45-13.86,6.93-13.86,6.93"/>
    <path class="cls-5" d="M461.51,80.1s-3.43-8.72-12.76-8.45-13.86,6.93-13.86,6.93"/>
    <polyline class="cls-5" points="189.4 35.93 167.85 46.32 186.12 61.78"/>
    <polyline class="cls-5" points="695.36 44.42 673.81 54.81 692.08 70.27"/>
  </g>
</svg>