<?xml version="1.0" encoding="UTF-8"?>
<svg id="_レイヤー_2" data-name="レイヤー 2" xmlns="http://www.w3.org/2000/svg" viewBox="0 0 1442 274">
  <defs>
    <style>
      .cls-1 {
        fill: #4d6f64;
      }
    </style>
  </defs>
  <g id="_レイヤー_1-2" data-name="レイヤー 1">
    <path class="cls-1" d="M1442,115l-4-1h-1.43l-.57-1-1-1-1,1-2-1h-4.9l-2.1-1-2-1h-8l-3-1v-.53l-2-.47h-3l-2-1v-.89l-3,.89-1-1-2,1-2.55-1-.45,2-3,1h0l-2-1h-1v1h-20l-2-1h-8l-2,1-2-2-1,1-1-1-.94-1-2.06,1-2-2h-1.41l-.59-1h-2v-.65s-1,.65-1-.35v-1h-2.55l-3.45-3-1,1-1.58-1-1.42-1h-1.12l-.88-1-1-1-1,1-.72-1h-.9l-1.37-1h-2v-1h-2.32l-1.68-1h-1l-1-3-2,2-1-1-2-1v-1h-2.76l-1.24-1h-1v-1h-2.55l-1.45-1h-.74l-.26-2-2,1h-3l-2.01-1h-5.99s-3.48,0-3.48,0l-2.52-1-2-1h-5l-2-3h-1l-1,1h-5l-2-1h-4l-4-1h-3.66l-2.34-1h-1.6v1.38l-1.4-.38h0l-.46-1-1.54-1-2,1v-1.38l-3-.62v-1h-2v1.17l-.7-1.17h-1.3l-1,1v-2l-1,1-2,1h-7l-2,1-1-1h-1l-1,1-1-1-1-1-1,1-1.23-2h-1.77l-1-1h-2v-1h-2l1,2-2.29-2v-1.07l-.71.07-1,1-1,1-2-1h-7l.44-1.07h-2.87l-1.57-.93-1-1h-4s-2-1-2-1h-1.07l-2.93-1h-3.27l-.73,1-1-1h-2.55l-4.45-1-3-1h-2.3l.3-2-1,1v1h-1l-1-1-1-1h-1l-1-1h-2v-1h-3l-1-1-1-1-1,1v-2.66l-1-.34-1,2h-1l-1-1-1.02-1h-.98l-1,1-1-1-12-3v-1l-2,1-1-1h-4l-2-2-3-1h-3l-3-2h-3v-1h-.96l-.04,1-1-1-1-1h-4.63l-2.37-1-1,1h-4l-2,1h-3l-1-1h-1l-1,1-2-1-.98-1h-1.02l-1,1-7-1-4,1h-3l-3.81-1-1.19-1h-4l-2-1v-2.53l-2-.47v2l-2,1h-3v-1h-2l-1,2v-2h-1l-1-1-.95-1h-1.05l-1,1-1-2h-1v-1h-1.17l-.83,2-1-1v-1h-1l-1,1h-1v-.53l-1-.47-1-1h-1l-3-1-2-2-2,1-1-2-1,1-3-1-2-1h-4v1-2h-2l-1,1-1,1h-5l-2,2h-2l-1,1h-4v-1h-2v2l-3-4-5,1-1-3-1,2h-2l-1-1-2.8-1-1.2-1-2,1-1.29-1h-2.72l-.99,1h-4l-2,1v-1h-1v2h-7l-2-2h-4l-1.43-1-2.57-2h-3l-6-2-4-2-2-1h-2l-2,1h-4l-2,1h-2l-6,3h-3l-2,1v2l-8,3h-10l-2,1-3-1h-3l-1,1-1-1-1-1-2,1-1-1h-2v2h-9l-1-1h-1v1.03l-1-.03-1-1-2-1-1,3h-5v-2h-1l-1,2h-5l-3-1h-1l-2,1-4-1-3-1-3-1-6-4-3,2-2-2-10-2-4-1-5.76-3-12.24-3-20,2-8,2-7,3-1,2-2-2-1,2-1-2-2,2-1,2h-11v1.3l-3-3.3h-2l-1,2-2,1-2-1h-2v.93l-3,.07h-6l-2,1-1-2-1,1-2,1h-1l-2-1h-1l-1-1h-15l-4-3h-1l-2-1-2-1-13-3h-7l-1,1h-1l-1-1h-22l-9,2-4,1h-6l-2,1h-3l-7-1h-4l-5,1-7,2h-7l-7,1h-6l-2,1-6,1-2-2h-5l-2-2h-10l-4-1h-6l-3-2-4-4-2.77-1h-3.08l-2.15-1v-4.3l-3,3.3-4-2h-3l-2.11-1.3h-1.93l-1.97-1.7v2.08l-3-1.08-2,2-2,3v-3.92l-1,1.92-4-1-4,1-3-3h-4l-7-4h-4.25l-3.75-3-5-2-3-1-6-3h-10.56l-5.44,2-5,1-6,1-4-1-4.5,3.24-10-1.02-6.5,2.78h-7l-3-3-1,4-4-1-2-1h-2l-10,2-2,1-5-1v1.81l-2,.19-4-1-6,1h-2l-3-2v1.62l-5-1.62-4-1h-5l-5-2-3,2-1-5-1,5-2-1-3-1-4-1h-4l-8-2h-9l-10-1-6,1-1.59-3-1.41,5-2-2h-12l-6.17-3v2.53l-4.83.47-7,3-10,1h-6l-20,3-5-2-4,2h-3l-16,2-8,5h-12l-10-8v12.31l-10-5.31-16-1v7.89l-24-5.89-17,5-12-1-4,8h-8l-11-2-7,3-5-6-4,8-8-6-11,6-5,2v240h1442"/>
  </g>
</svg>