<?xml version="1.0" encoding="UTF-8"?>
<svg id="_レイヤー_2" data-name="レイヤー 2" xmlns="http://www.w3.org/2000/svg" viewBox="0 0 1221.5 348.5">
  <defs>
    <style>
      .cls-1 {
        fill: #29533d;
      }
    </style>
  </defs>
  <g id="_レイヤー_1-2" data-name="レイヤー 1">
    <path class="cls-1" d="M0,2.86L6.5,0h18.81l4.19,1.02,5,2.04,4,1.02,5,2.04,3,1.02h3.23l2.77,2.04h6.37l6.63,1.02h2.8l5.2,1.02h18l7,1.02,10,3.07,7,1.02h10.36l6.64,3.07h6l3,1.02h4l3,1.02,10,2.04,5,1.02h5l3-1.02,5-1.02h3l4,1.02h6l8,2.04,4,1.02,2,1.02,12,1.02,7,1.02,6,1.02,4,1.02,1,1.02h3l2,2.04h2l1,1.02v1.02l7,2.04,2,2.04h3l3,1.02,2,1.02,6-1.02,2-2.04,4,2.04,3.24,1.02.76-1.02,2-1.02h3l6.34,2.04s.34,2.89,0,2.47,1.66-2.47,1.66-2.47h4l1,1.02,3-2.04,2,2.04h3l1,1.02,1-1.02h3l1,2.04,1-1.02,1,1.02,1,2.04,2-2.04,2,2.04,3,1.02h2l2,1.02,1,1.02h6l8,3.07,6,1.02h2l1,1.02v1.02l16,6.13,4,1.02h4l1,1.02h2l2,1.02,2,2.04,2,1.02h3.76l2.24,1.02,1,2.04,5,1.02,4,2.04,4,2.04h2l1-1.02v3.07l5-1.02,2,2.04,1,1.02,2-1.02,9,6.13,5,3.07,4,2.04h4l4,1.02,5,3.07,5,2.04h6l3,1.02,3-1.02h3l5,3.07,1-1.02,4,2.04h4.26l2.74,3.07,3-2.04,4-1.02,2,4.09h1.99v3.02l4.01,2.09,4,2.04,4,2.04h3.99l4.01,1.02,4,2.04,4,4.09,5,2.04,4,2.04,2-1.02h2l2,2.04,7,3.07h2.18l4.82,3.07,2,2.04,2-2.04v2.04h3.94l2.06,2.04,8,5.11,5,2.04h4.65l.35,1.02h1.43l2.57,1.02,1,2.04,6,2.04,4,3.07h1.61l5.39,2.04,7,2.04,6,1.02,13-2.04,6,4.09h3.96l4.04,3.07,4,3.07,5-3.07h3l3,1.02,2.18,2.04,1.82,2.04,2,4.09,5-1.02,4,1.02h2.01l.99,2.04,3-3.07,2,1.02h2l1,4.09,5-1.02,1.95,1.02,3.05-1.02h7l4,4.09,5,3.07,5,3.07,4-1.02,3,3.07,2,2.04,3,3.07,13,5.11h8l2,3.07,4,2.04,5,2.04,3,1.02,5,1.02,7,3.07,3-1.02,6,3.07,3,1.02,3,3.07,2,1.02h5.22l3.78,2.04,3-2.04h3l2,1.02h2l.59,1.02,2.41-1.02,3.24,1.02.76,1.02,2-1.02h2l12,3.07h3.44l4.56,4.09,6,3.07,1-1.02h4l4.46,1.02,3.54,3.07,5,5.11v-1.94l2,3.98,3-1.02,1.33,1.02h4.79l.87,3.07h2.88l2.12,1.02,1,2.04,4,2.04h2.47l1.53,1.02,2,2.04h7.87l2.13,1.02h3.83l3.17,1.02h2.41l1.59,2.04,2,1.02,2-1.02,2.05,1.02,5.95-1.02,3.9,1.02h7.9l3.2,1.02h8.07l1.93-1.02,5,2.04h5.25l2.75,3.07,16,2.04,1-1.02h3l4,2.04h14.19l3.81,2.04,3,1.02h5.76l4.24,1.02,3,1.02h3.52l4.48-1.02,2,2.04,3,1.02,1,1.02,6,4.09h1.66l7.34,1.02,6,2.04h4.36l3.64-1.02,3.32,1.02,2.68,3.07h5.23l9.77,4.09,3,2.04h6.22l9.78,7.15h3.51l4.49,1.02h8.17l3.83,2.04,3,3.07h6.15l2.85,3.07h4.11l4.89,2.04,2,1.02v2.15l3-1.13v3.79l6,.29,10,1.02,5.93,6.03h5.81l5.26,5.21,10,6.13h1.98l2.02,3.07,4,3.07,4,2.04,4,2.04h2.42v2.23l1.58-.19,11.25.19,2.75,2.88H0"/>
  </g>
</svg>